<?xml version="1.0" encoding="UTF-8"?>
<svg width="438px" height="450px" viewBox="0 0 438 450" version="1.1" xmlns="http://www.w3.org/2000/svg" xmlns:xlink="http://www.w3.org/1999/xlink">
    <!-- Generator: Sketch 62 (91390) - https://sketch.com -->
    <title>illustration-solutions-education</title>
    <desc>Created with Sketch.</desc>
    <defs>
        <linearGradient x1="50%" y1="-17.429554%" x2="50%" y2="42.068977%" id="linearGradient-1">
            <stop stop-color="#6D2077" offset="0%"></stop>
            <stop stop-color="#6D2077" stop-opacity="0" offset="100%"></stop>
        </linearGradient>
    </defs>
    <g id="Page-1" stroke="none" stroke-width="1" fill="none" fillRule="evenodd">
        <g id="Solutions---Education" transform="translate(-113.000000, -754.000000)">
            <g id="illustration-solutions-education" transform="translate(66.500000, 738.800058)">
                <g id="Illustration/Industries/Retail">
                    <g transform="translate(16.000000, 16.000000)">
                        <polygon id="Polygon" fill="url(#linearGradient-1)" opacity="0.204892113" points="234 0 436.649944 117 436.649944 351 234 468 31.3500555 351 31.3500555 117"></polygon>
                        <g id="Icon/Card/Orange/GenericID" transform="translate(268.000000, 228.000000)" fill="#6D2077" fillRule="nonzero">
                            <g id="address-card">
                                <path d="M183.333333,0 L16.6666667,0 C7.46192084,0 0,7.46192084 0,16.6666667 L0,138.888889 C0,148.093635 7.46192084,155.555556 16.6666667,155.555556 L183.333333,155.555556 C192.538079,155.555556 200,148.093635 200,138.888889 L200,16.6666667 C200,7.46192084 192.538079,0 183.333333,0 Z M61.1111111,33.3333333 C73.3841056,33.3333333 83.3333333,43.2825611 83.3333333,55.5555556 C83.3333333,67.82855 73.3841056,77.7777778 61.1111111,77.7777778 C48.8381167,77.7777778 38.8888889,67.82855 38.8888889,55.5555556 C38.9003742,43.2873216 48.8428772,33.3448187 61.1111111,33.3333333 Z M100,115.555556 C100,119.236111 96.5277778,122.222222 92.2222222,122.222222 L30,122.222222 C25.6944444,122.222222 22.2222222,119.236111 22.2222222,115.555556 L22.2222222,108.888889 C22.2222222,97.8472222 32.6736111,88.8888889 45.5555556,88.8888889 L47.2916667,88.8888889 C56.1323785,92.5926901 66.0898437,92.5926901 74.9305556,88.8888889 L76.6666667,88.8888889 C89.5486111,88.8888889 100,97.8472222 100,108.888889 L100,115.555556 Z M177.777778,97.2222222 C177.777778,98.7563465 176.534124,100 175,100 L125,100 C123.465876,100 122.222222,98.7563465 122.222222,97.2222222 L122.222222,91.6666667 C122.222222,90.1325424 123.465876,88.8888889 125,88.8888889 L175,88.8888889 C176.534124,88.8888889 177.777778,90.1325424 177.777778,91.6666667 L177.777778,97.2222222 Z M177.777778,75 C177.777778,76.5341243 176.534124,77.7777778 175,77.7777778 L125,77.7777778 C123.465876,77.7777778 122.222222,76.5341243 122.222222,75 L122.222222,69.4444444 C122.222222,67.9103201 123.465876,66.6666667 125,66.6666667 L175,66.6666667 C176.534124,66.6666667 177.777778,67.9103201 177.777778,69.4444444 L177.777778,75 Z M177.777778,52.7777778 C177.777778,54.3119021 176.534124,55.5555556 175,55.5555556 L125,55.5555556 C123.465876,55.5555556 122.222222,54.3119021 122.222222,52.7777778 L122.222222,47.2222222 C122.222222,45.6880979 123.465876,44.4444444 125,44.4444444 L175,44.4444444 C176.534124,44.4444444 177.777778,45.6880979 177.777778,47.2222222 L177.777778,52.7777778 Z" id="Shape"></path>
                                <path d="M61.1111111,77.7777778 C73.3841056,77.7777778 83.3333333,67.82855 83.3333333,55.5555556 C83.3333333,43.2825611 73.3841056,33.3333333 61.1111111,33.3333333 C48.8381167,33.3333333 38.8888889,43.2825611 38.8888889,55.5555556 C38.9003742,67.8237895 48.8428772,77.7662925 61.1111111,77.7777778 Z M76.6666667,88.8888889 L74.9305556,88.8888889 C66.0898437,92.5926901 56.1323785,92.5926901 47.2916667,88.8888889 L45.5555556,88.8888889 C32.6736111,88.8888889 22.2222222,97.8472222 22.2222222,108.888889 L22.2222222,115.555556 C22.2222222,119.236111 25.6944444,122.222222 30,122.222222 L92.2222222,122.222222 C96.5277778,122.222222 100,119.236111 100,115.555556 L100,108.888889 C100,97.8472222 89.5486111,88.8888889 76.6666667,88.8888889 Z" id="Shape" opacity="0.387486049"></path>
                            </g>
                        </g>
                        <path d="M121.190681,84.4190772 C121.457976,84.5194543 121.721302,84.6300993 121.980071,84.7507656 C124.003567,85.6943371 125.640303,87.130338 126.814129,88.8495463 C132.579712,85.5437965 139.689397,84.6508243 146.467181,86.9866574 C147.25298,87.2574681 148.024097,87.5691411 148.77738,87.9204026 C162.041689,94.1056515 167.780401,109.872634 161.595152,123.136943 L128.264327,194.615129 C124.549108,202.582368 115.078617,206.029344 107.111366,202.314154 C105.856807,201.729144 104.684596,200.983298 103.624074,200.095961 L103.23167,199.756614 L103.23167,199.756614 C102.305263,198.928698 101.332964,197.973733 100.314774,196.891717 C92.6773222,188.775514 90.1684477,177.094439 93.7996498,166.557941 L99.0629019,151.285819 C97.872122,151.299746 96.659702,151.053275 95.508246,150.516343 C95.1685735,150.357951 94.8401627,150.176452 94.5253248,149.973123 C89.9129937,146.994387 88.0000925,141.203897 89.9303498,136.063802 L106.885682,90.9133396 C109.042557,85.1697821 115.447124,82.2622018 121.190681,84.4190772 Z" id="Combined-Shape" fill="#87189D" transform="translate(126.634171, 143.758117) rotate(3.000000) translate(-126.634171, -143.758117) "></path>
                        <g id="Head/Front/Pony-Glasses" transform="translate(105.000000, 2.000000)">
                            <g id="Head" stroke-width="1" transform="translate(54.000000, 31.000000)" fill="#C051C0">
                                <path d="M38.1433414,9.13393292 C43.9381521,19.9350547 43.249578,47.3329958 35.7603014,49.2634576 C32.773664,50.0333035 26.4113241,48.1475566 19.935865,44.2446031 L24,73 L0,73 L8.26160177,34.4893378 C3.65406109,29.0807313 0.535660132,22.452516 1.05677633,15.0254539 C2.55833022,-6.37502057 32.3485306,-1.66718886 38.1433414,9.13393292 Z"></path>
                            </g>
                            <path d="M40.3818359,32.4465831 C48.7142304,24.6578386 60.5010803,26.1920449 61.8151292,33.341193 C73.876631,25.2365961 95.0198586,29.9993406 92.6071441,41.2806601 C91.2626171,47.5673707 83.9814383,50.7073555 76.818281,54.067812 C75.7649022,52.2369923 73.7540137,51 71.4466684,51 C68.0464589,51 65.2900445,53.6862915 65.2900445,57 C65.2900445,58.1935612 65.647651,59.3057239 66.2641422,60.2402777 C63.8547022,62.3363574 62.1544354,64.8594168 61.7432388,68.1317726 C57.070303,68.1317726 48.9323566,51.6235498 56.042308,39.4876104 C55.4283715,39.8753646 54.7491392,40.3894626 54,41.0658863 C47.4036458,47.0219621 47.4036458,57.1829427 54,71.5488281 C42.7560221,68.2140299 36.2158203,63.3644206 34.3793945,57 C31.6247559,47.4533691 31.5468551,40.7051227 40.3818359,32.4465831 Z" id="Hair" fill="#87189D"></path>
                        </g>
                        <g id="Bottom/Standing/Skinny-Jeans-Walk" transform="translate(20.000000, 210.000000)">
                            <polygon id="Leg" fill="#CFB5D2" points="128 0 176.081639 127.226909 209.783329 221 229 221 182.673688 9.81437154e-14"></polygon>
                            <polygon id="Leg" fill-opacity="0.1" fill="#000000" points="128 0 176.081639 127.226909 209.783329 221 229 221 182.673688 9.81437154e-14"></polygon>
                            <path d="M116.116628,0 C115.593979,43.6541888 115.971833,102.427468 114.754071,105.148648 C113.942229,106.962768 88.6908725,127.632305 39,167.157257 L48.9049803,184 C107.899481,145.955797 138.9048,124.399339 141.920937,119.330628 C146.445143,111.72756 169.1744,41.763137 181,0 L116.116628,0 Z" id="Leg" fill="#CFB5D2"></path>
                            <g id="Accessories/Shoe/Flat-Pointy" transform="translate(56.500000, 189.000000) rotate(50.000000) translate(-56.500000, -189.000000) translate(26.000000, 169.000000)" fill="#A654B7">
                                <path d="M0,40 L1,19 L22,19 C31.9576033,26 44.9576033,31.6666667 61,36 L61,40 L23,40 L10,38 L10,40 L0,40 Z" id="Shoe"></path>
                            </g>
                            <g id="Accessories/Shoe/Flat-Pointy" transform="translate(208.000000, 199.000000)" fill="#A654B7">
                                <path d="M0,40 L1,19 L22,19 C31.9576033,26 44.9576033,31.6666667 61,36 L61,40 L23,40 L10,38 L10,40 L0,40 Z" id="Shoe"></path>
                            </g>
                        </g>
                        <g id="Path-6" transform="translate(42.000000, 95.286392)">
                            <g id="Body/Turtle-Neck" transform="translate(0.000000, 0.713608)">
                                <path d="M60.9697919,67.4496834 L82.8671837,67.5318631 C66.1894326,121.56567 57.3363474,149.856914 56.3079281,152.405597 C53.9939846,158.140133 58.8906002,166.873732 60.9845874,171.567103 C54.1645409,174.61887 54.8912241,163.316929 46.2879189,167.319492 C38.4352209,170.972846 32.4616931,177.59248 23.3890352,171.994371 C22.2736052,171.306117 21.0512757,168.714714 24.0045784,166.68967 C31.3623323,161.644547 41.9653015,152.814672 43.3979297,149.908251 C45.3515741,145.944826 51.2088615,118.458637 60.9697919,67.4496834 L60.9697919,67.4496834 Z M199.493124,92.4603344 L227.821028,120.095357 C236.063404,123.611168 242.816857,127.493333 248.081387,131.741853 C249.265301,133.169925 250.554184,135.906184 244.983927,134.681747 C239.413671,133.45731 233.49953,132.419902 232.45261,134.23139 C231.405691,136.042878 234.490525,138.818722 232.555688,141.189494 C231.265796,142.770009 226.92779,137.742701 219.54167,126.10757 L190.084396,108.74029 L199.493124,92.4603344 Z" id="Skin" fill="#C051C0"></path>
                                <path d="M122.768272,9.7139848 L131.253224,7.48281413 C149.019938,54.2642227 221.602897,80.8616426 227.451896,98.4190631 C229.596879,104.857833 225.154909,108.596168 227.774893,110.385298 L217.29519,119.561394 C215.205566,117.515062 211.513381,121.915723 202.815928,119.824345 C194.118475,117.732967 127.737533,66.5128914 122.768272,9.7139848 Z" id="Clothes-Back" fill="#C48DCF" transform="translate(175.413267, 63.943241) rotate(5.000000) translate(-175.413267, -63.943241) "></path>
                                <path d="M112.315629,-4.72097411 L139.249859,-2.83754931 C141.453616,-2.68344757 143.115191,-0.772024866 142.961089,1.43173278 L142.241614,11.6763485 C141.22167,75.4733311 178.098291,91.7368983 169.887262,117.318245 C163.108761,138.436573 98.2273311,161.138686 87,140.43774 C82.4547451,132.057203 80.3928582,121.921313 80.1593383,110.901428 C77.2906083,119.368441 75.0207635,126.656945 73.3511268,132.767479 C70.4711839,143.30749 59.3062598,144.982871 59.3062598,149.043262 L59.3062598,149.043262 L44.5966299,144.982871 C45.5943495,139.466662 38.6598745,136.780597 40.5191881,124.456905 C48.8498993,69.2402236 71.2328417,29.2151944 107.668015,4.38181722 L108.046347,-1.0097438 C108.200449,-3.21350145 110.111872,-4.87507585 112.315629,-4.72097411 Z" id="Clothes-Front" fill="#C48DCF"></path>
                            </g>
                            <path d="M114.956053,-7.05536476 C127.678264,24.5217907 131.417514,49.4680803 125.815519,67.9606444 C120.370359,85.935487 105.885072,105.632377 82.4560463,127.278715 L81.7132094,127.962931 L79.4902344,114.91297 C101.186037,94.7437529 110.560812,80.3761583 115.287964,64.7715083 C119.923756,49.4684467 116.758583,27.4274823 105.455233,-1.18466216 L104.753019,-2.94463524 L114.956053,-7.05536476 Z" fill="#87189D" fillRule="nonzero"></path>
                        </g>
                    </g>
                </g>
            </g>
        </g>
    </g>
</svg>